<?xml version="1.0" encoding="UTF-8"?> <svg xmlns="http://www.w3.org/2000/svg" width="35" height="25" viewBox="0 0 35 25" fill="none"><path d="M31.4974 7.58263L24.9141 0.902309C23.609 -0.303333 21.4829 -0.303333 20.1695 0.909892C19.7509 1.29661 19.4718 1.75915 19.3241 2.24444C18.0107 1.31936 16.1227 1.41035 14.916 2.525C14.4974 2.91171 14.2183 3.37425 14.0706 3.85954C12.7572 2.93446 10.8692 3.02545 9.66255 4.1401C9.25212 4.51924 8.97302 4.96661 8.82527 5.44432L5.72242 2.58566C4.41725 1.38002 2.29944 1.38002 0.98606 2.59324C-0.327315 3.79888 -0.327315 5.76279 0.977851 6.96843L12.8967 17.9784L5.82913 19.0021C3.91653 19.2523 2.48002 20.7916 2.48002 22.5735C2.48002 23.9081 3.66206 25 5.10678 25H21.6225C24.1918 25 26.6133 24.0749 28.4356 22.3916L31.1937 19.8438C33.0078 18.168 34.0092 15.9311 34.0092 13.5578C34.001 11.3512 33.1063 9.22806 31.4974 7.58263ZM29.946 18.7064L27.1879 21.2542C25.7021 22.6266 23.7239 23.3849 21.6143 23.3849H5.10678C4.62247 23.3849 4.22846 23.0209 4.22846 22.5735C4.22846 21.5878 5.02469 20.7461 6.09181 20.602L14.875 19.3282C15.2033 19.2827 15.466 19.0703 15.5727 18.7822C15.6712 18.4941 15.5892 18.1756 15.3593 17.9633L2.21735 5.82345C1.5935 5.24717 1.5935 4.3145 2.22556 3.73064C2.53748 3.4425 2.94791 3.29843 3.35014 3.29843C3.75236 3.29843 4.16279 3.4425 4.47471 3.73064L13.2333 11.8213C13.578 12.1398 14.128 12.1398 14.4728 11.8213C14.6452 11.6621 14.7273 11.4574 14.7273 11.245C14.7273 11.0327 14.6452 10.828 14.4728 10.6688L10.8938 7.36273C10.27 6.78645 10.27 5.85378 10.902 5.26992C11.5259 4.69364 12.5356 4.69364 13.1594 5.26992L16.7384 8.57596C17.0831 8.89443 17.6331 8.89443 17.9779 8.57596C18.1502 8.41672 18.2323 8.21199 18.2323 7.99967C18.2323 7.78736 18.1502 7.58263 17.9779 7.42339L16.1473 5.73246C15.5235 5.15618 15.5235 4.22351 16.1555 3.63965C16.7794 3.06337 17.7891 3.06337 18.4129 3.63965L20.2516 5.33816C20.5964 5.64147 21.1382 5.63389 21.4747 5.323C21.8195 5.00453 21.8195 4.49649 21.4747 4.17802L21.4008 4.10977C21.0971 3.82921 20.9329 3.45766 20.9329 3.07095C20.9329 2.68423 21.0971 2.31268 21.409 2.02454C22.0329 1.44826 23.0426 1.45584 23.6336 1.99421L30.1922 8.65178C31.5138 9.99391 32.2362 11.7303 32.2362 13.5426C32.2444 15.5065 31.4317 17.3339 29.946 18.7064Z" fill="white"></path></svg> 