<?xml version="1.0" standalone="no"?>
<!DOCTYPE svg PUBLIC "-//W3C//DTD SVG 20010904//EN"
 "http://www.w3.org/TR/2001/REC-SVG-20010904/DTD/svg10.dtd">
<svg version="1.0" xmlns="http://www.w3.org/2000/svg"
 width="199.000000pt" height="105.000000pt" viewBox="0 0 199.000000 105.000000"
 preserveAspectRatio="xMidYMid meet">

<g transform="translate(0.000000,105.000000) scale(0.100000,-0.100000)"
fill="#000000" stroke="none">
<path d="M230 589 c-25 -5 -73 -23 -107 -39 -48 -24 -69 -41 -88 -74 -52 -89
-31 -93 95 -22 133 76 150 71 76 -23 -73 -94 -95 -158 -64 -189 27 -27 54 -11
157 96 58 59 95 91 83 72 -81 -127 -105 -174 -110 -215 -4 -40 -2 -45 21 -56
22 -10 32 -8 69 14 40 23 99 77 85 77 -3 0 -23 -11 -43 -25 -113 -77 -98 26
32 221 52 78 65 116 44 129 -6 4 -30 -15 -53 -42 -104 -120 -191 -203 -214
-203 -13 0 -23 4 -23 9 0 5 27 50 60 101 69 105 83 146 55 167 -11 7 -21 13
-24 12 -3 -1 -26 -5 -51 -10z"/>
<path d="M827 437 c-12 -13 -46 -54 -75 -93 -43 -56 -45 -61 -12 -25 22 24 40
37 40 30 0 -14 -49 -101 -124 -223 -20 -33 -36 -73 -36 -89 0 -47 22 -27 55
51 27 63 33 72 57 72 15 0 38 -5 52 -11 34 -16 64 -6 113 36 46 39 63 44 63
18 0 -10 5 -25 10 -33 8 -12 15 -9 46 20 24 23 38 31 41 22 10 -27 56 -72 74
-72 10 0 37 18 60 41 22 22 42 39 43 37 1 -2 7 -16 14 -31 20 -47 39 -44 99
14 32 31 53 45 48 34 -16 -46 -18 -92 -2 -98 16 -6 79 34 106 66 18 23 31 21
31 -2 0 -11 10 -32 23 -47 18 -21 29 -26 49 -21 28 7 128 85 128 100 0 6 -8 3
-17 -5 -10 -9 -32 -23 -50 -32 -94 -47 -141 22 -60 88 31 24 40 28 47 16 11
-18 33 -1 50 41 10 22 10 33 2 41 -24 24 -127 -48 -167 -117 -26 -44 -72 -72
-100 -61 -22 8 -18 38 10 76 16 22 23 41 19 56 -3 12 -1 25 6 29 8 5 8 10 -1
21 -16 19 -26 18 -85 -10 -61 -28 -118 -77 -150 -128 -29 -46 -67 -72 -93 -63
-37 11 -32 33 15 67 51 37 78 79 69 108 -11 35 -43 21 -124 -55 -44 -41 -85
-75 -91 -75 -19 0 -10 27 25 74 32 40 34 46 16 46 -23 0 -44 -19 -77 -71 -32
-52 -84 -89 -123 -89 l-33 0 42 48 c40 43 70 97 70 122 0 22 -41 8 -97 -34
-32 -24 -59 -43 -61 -41 -6 6 27 62 67 113 23 28 41 54 41 57 0 14 -33 2 -53
-18z m613 -94 c0 -3 -18 -29 -39 -57 -68 -88 -131 -120 -131 -67 0 29 37 67
100 101 56 30 70 35 70 23z m-250 -18 c0 -18 -68 -95 -84 -95 -6 0 -18 5 -26
10 -12 9 -7 18 33 55 50 46 77 57 77 30z m-320 -28 c0 -13 -15 -40 -32 -60
-30 -34 -36 -36 -68 -29 l-35 9 51 51 c56 57 84 66 84 29z"/>
<path d="M575 374 c-58 -30 -130 -117 -121 -146 3 -7 7 -25 10 -40 4 -15 17
-35 30 -43 34 -23 75 -3 151 70 52 51 54 54 14 22 -61 -48 -92 -61 -123 -53
-19 5 -26 13 -26 31 0 19 10 30 48 49 61 31 95 67 90 98 -4 29 -32 34 -73 12z
m35 -33 c0 -21 -63 -81 -85 -81 -25 0 -17 20 24 61 43 43 61 49 61 20z"/>
</g>
</svg>
